<?xml version="1.0" encoding="UTF-8" standalone="no"?>
<!-- Created with Inkscape (http://www.inkscape.org/) -->

<svg
   version="1.1"
   id="svg2"
   width="1798.8663"
   height="2274.1882"
   viewBox="0 0 1798.8663 2274.1882"
   xmlns="http://www.w3.org/2000/svg"
   xmlns:svg="http://www.w3.org/2000/svg">
  <defs
     id="defs6">
    <clipPath
       clipPathUnits="userSpaceOnUse"
       id="clipPath140">
      <path
         d="M 0,2000 H 2000 V 0 H 0 Z"
         id="path138" />
    </clipPath>
  </defs>
  <g
     id="g132"
     transform="matrix(1.3333333,0,0,-1.3333333,-434.8134,2460.3986)">
    <g
       id="g134"
       transform="matrix(2.6541397,0,0,2.6541397,-1655.2728,-1641.6978)">
      <g
         id="g136"
         clip-path="url(#clipPath140)">
        <g
           id="g142"
           transform="translate(943.9064,700.0499)">
          <path
             d="M 0,0 C 11.872,18.157 18.294,46.894 19.062,86.358 H 18.573 V 342.199 H -25.86 v 15.163 h 44.433 v 119.829 c 0,46.349 9.985,79.418 29.983,99.192 15.869,15.703 39.553,25.279 70.978,28.784 -26.51,7.107 -54.739,10.011 -83.939,7.909 -125.881,-9.062 -224.827,-109.222 -232.496,-235.196 -4.592,-75.424 24.077,-144.2 72.721,-193.097 47.255,-47.501 72.89,-108.686 79.818,-174.336 2.359,-22.356 31.315,-29.8 43.886,-11.164 C -0.316,-0.48 -0.158,-0.241 0,0"
             style="fill:#0047ab;fill-opacity:1;fill-rule:nonzero;stroke:none"
             id="path144" />
        </g>
        <g
           id="g146"
           transform="translate(1104.4615,1292.5992)">
          <path
             d="m 0,0 c -25.39,11.17 -55.537,3.975 -71.675,-18.585 -0.48,-0.671 -0.949,-1.354 -1.408,-2.05 -12.764,-19.355 -19.145,-50.929 -19.145,-94.723 l 0.182,-119.829 h 44.824 v -15.163 h -44.812 l 0.084,-48.52 0.015,-15.431 0.279,-183.511 c 0,-46.349 -9.984,-79.418 -29.982,-99.192 -11.441,-11.321 -26.948,-19.455 -46.476,-24.434 H -4.579 v 0.859 c 0,80.427 29.947,158.419 85.463,216.613 43.057,45.134 69.499,106.249 69.499,173.559 C 150.383,-127.46 88.551,-38.958 0,0"
             style="fill:#808080;fill-opacity:1;fill-rule:nonzero;stroke:none"
             id="path148" />
        </g>
      </g>
    </g>
  </g>
</svg>
